<?xml version="1.0" encoding="utf-8"?>
<!-- Generator: Adobe Illustrator 26.5.0, SVG Export Plug-In . SVG Version: 6.00 Build 0)  -->
<svg version="1.1" id="Layer_1" xmlns="http://www.w3.org/2000/svg" xmlns:xlink="http://www.w3.org/1999/xlink" x="0px" y="0px"
	 viewBox="0 0 512 512" style="enable-background:new 0 0 512 512;" xml:space="preserve">
<style type="text/css">
	.st0{fill:none;}
</style>
<path class="st0" d="M125.27,274.37c0,0-78.5,32.75-116.37-12.15c0,0-22.03-27.5,5.14-45.8c0,0,57.14-73.12,113.34-59.84
	c0,0,51.76-125.72,154.76-124.92c0,0-7.92,87.42-108.28,133.9c0,0-9.51,2.68-12.15,39.63"/>
<path class="st0" d="M164.59,185.17c0,0,8.77,14.66,48.19,21.97h89.44c0,0,78.17-25.38,135.92,14.76c0,0-10.62-19.64,4.9-45.03
	c15.52-25.4,50.73-8.49,50.73-8.49s23.95,18.62,16.2,48.04c-7.75,29.43-46.12,26.12-46.12,26.12s72.9,69.5,0,173.73
	c0,0-13.74,32.4-94.03,47.89"/>
<path class="st0" d="M338.06,464.17H208.77c0,0-2.59-32.4,30.99-33.1s85.7,0,85.7,0s-25.61-4.31-44.64-23.94
	c-11.73-12.1-20.96-30.02-20.16-56.34c2.11-69.02,67.61-71.13,67.61-71.13"/>
<path class="st0" d="M280.3,407.47c0,0-32.21,9.01-76.59-10.3l-23.68,66.99h-58.45c0,0,4.49-35.13,39.09-33.5"/>
<path class="st0" d="M151.99,430.67v-55.95c0,0,4.45-52.48-59.47-88.83"/>
<path class="st0" d="M105.2,153.94l14.05-15.32c0,0,15.01-51.24,17.38-52.29c2.38-1.06,5.81-50.44,77.12-61.01
	c0,0,4.53,12.98-1.21,26.74"/>
</svg>
