<?xml version="1.0" encoding="utf-8"?>
<!-- Generator: Adobe Illustrator 26.5.0, SVG Export Plug-In . SVG Version: 6.00 Build 0)  -->
<svg version="1.1" id="Layer_1" xmlns="http://www.w3.org/2000/svg" xmlns:xlink="http://www.w3.org/1999/xlink" x="0px" y="0px"
	 viewBox="0 0 512 512" style="enable-background:new 0 0 512 512;" xml:space="preserve">
<style type="text/css">
	.st0{fill:none;}
</style>
<path class="st0" d="M103.84,346.31c0,0-69.43-21.61-76.91-87.57c0,0,0-10.24,20.3-7.96c20.3,2.27,53.41,9.1,56.62,4.55
	c3.2-4.55,26.71,3.41,38.46-43.22c0,0,4.27,6.82-10.68-30.71S130.54,23.33,243.77,10.82s135.44,104.22,134.59,129.09
	c0,0,0.22,17.44-16.87,66.34c0,0-11.96,33.15,43.59,47.94c0,0,51.27-10.24,69.43-1.14c0,0,40.59,25.02-72.64,93.25"/>
<path class="st0" d="M122.71,275.8c0,0-24.93,50.8-18.52,74.3c4.36,16,13.16,75.23,58.63,111.88
	c21.31,17.18,50.69,29.41,91.44,29.89c127.67,1.52,147.61-141.4,147.61-141.4s0.36-33.17-22.79-74.68"/>
<path class="st0" d="M162.45,462.88c0,0-14.42,4.98-13.75,14.22c0.67,9.24,15.36,9.67,15.36,9.67s6.14,0.14,12.55,12.23
	c6.41,12.08,48.07-1.28,47.27-9.1"/>
<path class="st0" d="M341.74,463.15c0,0,14.42,4.98,13.75,14.22c-0.67,9.24-15.36,9.67-15.36,9.67s-6.14,0.14-12.55,12.23
	s-48.07-1.28-47.27-9.1"/>
<path class="st0" d="M252.05,166.2c0,0-22.03,3.13-24.84,16.06c-2.8,12.94,22.3,17.2,24.84,17.49s24.57-5.97,24.97-15.92
	C277.42,173.88,252.05,166.2,252.05,166.2z"/>
<path class="st0" d="M236.43,170.47c0,0,9.61-16.35,8.55-36.82c-1.07-20.47-17.23-51.89-44.2-51.46
	c-26.97,0.43-42.33,20.75-46.07,51.03s7.88,49.19,7.48,51.74c-0.4,2.56,7.21,21.18,6.94,41.94s-25.37,55.16-25.9,66.67
	c-0.53,11.51-35.44,86.86,43.06,145.62c0,0,54.64,46.25,134.76,0c0,0,72.64-42.84,39.17-145.57c0,0-23.86-50.42-24.21-65.2
	c-0.36-14.78,6.05-49.28,9.61-55.35s6.41-39.05,3.56-45.11c-2.85-6.07-4.63-42.28-44.15-45.78c-39.52-3.5-45.58,50.71-45.58,50.71
	s-1.78,20.09,9.97,38.67"/>
<path class="st0" d="M201.38,122.7c0,0,15.93,0,15.42,22.6c-0.47,20.9-15.09,20.9-15.09,20.9s-15.11,0-15.08-21.96
	C186.65,122.12,201.38,122.7,201.38,122.7z"/>
<path class="st0" d="M201.72,130.59c0,0,6.34-0.07,6.34,6.82c0,6.89-6.34,6.68-6.34,6.68s-6.62,0.07-6.55-6.75
	C195.24,130.52,201.72,130.59,201.72,130.59z"/>
<path class="st0" d="M302.2,122.7c0,0,15.93,0,15.42,22.6c-0.47,20.9-15.09,20.9-15.09,20.9s-15.11,0-15.08-21.96
	C287.46,122.12,302.2,122.7,302.2,122.7z"/>
<path class="st0" d="M302.53,130.59c0,0,6.34-0.07,6.34,6.82c0,6.89-6.34,6.68-6.34,6.68s-6.62,0.07-6.55-6.75
	S302.53,130.59,302.53,130.59z"/>
</svg>
